<?xml version="1.0" encoding="UTF-8"?>
<!DOCTYPE svg PUBLIC "-//W3C//DTD SVG 1.1//EN" "http://www.w3.org/Graphics/SVG/1.1/DTD/svg11.dtd">
<!-- Creator: CorelDRAW 2017 -->
<svg xmlns="http://www.w3.org/2000/svg" xml:space="preserve" width="115.814mm" height="33.5886mm" version="1.1" style="shape-rendering:geometricPrecision; text-rendering:geometricPrecision; image-rendering:optimizeQuality; fill-rule:evenodd; clip-rule:evenodd"
viewBox="0 0 19705.83 5715.14"
 xmlns:xlink="http://www.w3.org/1999/xlink">
 <defs>
  <style type="text/css">
   <![CDATA[
    .fil20 {fill:#FEFEFE}
    .fil3 {fill:#FFED00}
    .fil26 {fill:#563082}
    .fil0 {fill:white}
    .fil12 {fill:url(#id0)}
    .fil21 {fill:url(#id1)}
    .fil25 {fill:url(#id2)}
    .fil18 {fill:url(#id3)}
    .fil9 {fill:url(#id4)}
    .fil14 {fill:url(#id5)}
    .fil15 {fill:url(#id6)}
    .fil13 {fill:url(#id7)}
    .fil6 {fill:url(#id8)}
    .fil23 {fill:url(#id9)}
    .fil2 {fill:url(#id10)}
    .fil24 {fill:url(#id11)}
    .fil1 {fill:url(#id12)}
    .fil11 {fill:url(#id13)}
    .fil16 {fill:url(#id14)}
    .fil8 {fill:url(#id15)}
    .fil22 {fill:url(#id16)}
    .fil4 {fill:url(#id17)}
    .fil7 {fill:url(#id18)}
    .fil17 {fill:url(#id19)}
    .fil10 {fill:url(#id20)}
    .fil19 {fill:url(#id21)}
    .fil5 {fill:url(#id22)}
   ]]>
  </style>
  <linearGradient id="id0" gradientUnits="userSpaceOnUse" x1="50172.84" y1="-51266.75" x2="-13655.67" y2="40891.7">
   <stop offset="0" style="stop-opacity:1; stop-color:#A0C422"/>
   <stop offset="0.278431" style="stop-opacity:1; stop-color:#D3DD23"/>
   <stop offset="0.780392" style="stop-opacity:1; stop-color:#D3DD23"/>
   <stop offset="1" style="stop-opacity:1; stop-color:#A0C422"/>
  </linearGradient>
  <linearGradient id="id1" gradientUnits="userSpaceOnUse" x1="44900.06" y1="-34265.27" x2="-889.96" y2="26190.43">
   <stop offset="0" style="stop-opacity:1; stop-color:#A91461"/>
   <stop offset="0.380392" style="stop-opacity:1; stop-color:#EC018C"/>
   <stop offset="0.639216" style="stop-opacity:1; stop-color:#EC018C"/>
   <stop offset="1" style="stop-opacity:1; stop-color:#A91461"/>
  </linearGradient>
  <linearGradient id="id2" gradientUnits="userSpaceOnUse" xlink:href="#id0" x1="47258.93" y1="-41830.58" x2="-6856.55" y2="31150.13">
  </linearGradient>
  <linearGradient id="id3" gradientUnits="userSpaceOnUse" xlink:href="#id1" x1="46842.62" y1="-36179.96" x2="-5746.46" y2="31345.09">
  </linearGradient>
  <linearGradient id="id4" gradientUnits="userSpaceOnUse" x1="36435.77" y1="-28070.02" x2="-2277.46" y2="32306.9">
   <stop offset="0" style="stop-opacity:1; stop-color:#06579B"/>
   <stop offset="0.290196" style="stop-opacity:1; stop-color:#00A0D9"/>
   <stop offset="0.788235" style="stop-opacity:1; stop-color:#00A0D9"/>
   <stop offset="1" style="stop-opacity:1; stop-color:#06579B"/>
  </linearGradient>
  <linearGradient id="id5" gradientUnits="userSpaceOnUse" xlink:href="#id4" x1="41847.37" y1="-34763.63" x2="-3803.88" y2="36456.9">
  </linearGradient>
  <linearGradient id="id6" gradientUnits="userSpaceOnUse" xlink:href="#id4" x1="36990.85" y1="-33730.89" x2="-8660.37" y2="30622.22">
  </linearGradient>
  <linearGradient id="id7" gradientUnits="userSpaceOnUse" xlink:href="#id4" x1="31451.67" y1="-37893.08" x2="-13977.46" y2="28476.56">
  </linearGradient>
  <linearGradient id="id8" gradientUnits="userSpaceOnUse" xlink:href="#id4" x1="5631.64" y1="-1696.97" x2="-196.17" y2="7272.57">
  </linearGradient>
  <linearGradient id="id9" gradientUnits="userSpaceOnUse" xlink:href="#id0" x1="42263.65" y1="-51631.29" x2="-11713.05" y2="32842.13">
  </linearGradient>
  <linearGradient id="id10" gradientUnits="userSpaceOnUse" xlink:href="#id4" x1="17981.08" y1="-9952.39" x2="-196.18" y2="15758.6">
  </linearGradient>
  <linearGradient id="id11" gradientUnits="userSpaceOnUse" xlink:href="#id0" x1="50866.46" y1="-46410.59" x2="-3109.97" y2="37929.49">
  </linearGradient>
  <linearGradient id="id12" gradientUnits="userSpaceOnUse" xlink:href="#id1" x1="37545.85" y1="-30747.16" x2="6047.94" y2="18250.02">
  </linearGradient>
  <linearGradient id="id13" gradientUnits="userSpaceOnUse" xlink:href="#id0" x1="44483.76" y1="-58994.35" x2="-19344.72" y2="40606.79">
  </linearGradient>
  <linearGradient id="id14" gradientUnits="userSpaceOnUse" xlink:href="#id4" x1="6694.43" y1="-3785.57" x2="-1988.32" y2="9605.12">
  </linearGradient>
  <linearGradient id="id15" gradientUnits="userSpaceOnUse" xlink:href="#id4" x1="26445.19" y1="-24174.63" x2="-12268.05" y2="21241.05">
  </linearGradient>
  <linearGradient id="id16" gradientUnits="userSpaceOnUse" xlink:href="#id1" x1="47397.16" y1="-39714.14" x2="1608.01" y2="31769.56">
  </linearGradient>
  <linearGradient id="id17" gradientUnits="userSpaceOnUse" xlink:href="#id4" x1="29914.05" y1="-33425.06" x2="-5468.86" y2="21864.83">
  </linearGradient>
  <linearGradient id="id18" gradientUnits="userSpaceOnUse" xlink:href="#id4" x1="30885.52" y1="-30179.99" x2="-7827.84" y2="28258.05">
  </linearGradient>
  <linearGradient id="id19" gradientUnits="userSpaceOnUse" xlink:href="#id1" x1="40182.33" y1="-40743.6" x2="-12268.1" y2="29050.41">
  </linearGradient>
  <linearGradient id="id20" gradientUnits="userSpaceOnUse" xlink:href="#id0" x1="42819.01" y1="-49277.81" x2="-21009.99" y2="34037.32">
  </linearGradient>
  <linearGradient id="id21" gradientUnits="userSpaceOnUse" xlink:href="#id0" x1="41708.6" y1="-47547.79" x2="-15875.78" y2="30671.27">
  </linearGradient>
  <linearGradient id="id22" gradientUnits="userSpaceOnUse" xlink:href="#id4" x1="35048.26" y1="-24388.56" x2="-334.94" y2="21041.55">
  </linearGradient>
 </defs>
 <g id="Layer_x0020_1">
  <metadata id="CorelCorpID_0Corel-Layer"/>
  <g id="_2386166526400">
   <path class="fil0" d="M7196.83 2439.73c-285.84,157.97 -566.13,317.28 -842.27,475.25 9.72,1.34 18.04,4.02 27.75,5.36 266.42,-160.66 538.39,-321.3 814.51,-480.61z"/>
   <path class="fil0" d="M19704.45 2134.51l0 -92.38c-1792.76,-807.26 -3600.77,-1558.28 -5483.72,-1704.2 -2514.29,-190.11 -4905.08,883.56 -7023.91,2103.14 1212.74,-669.36 2517.06,-1298.56 3947.66,-1664.04 2716.87,-680.08 5650.21,220.89 8559.96,1357.48z"/>
   <path class="fil0" d="M1084.56 4217.57c448.18,-582.36 1458.33,-1132.58 2721.04,-1337.39 761.77,-123.17 1579.05,-62.92 2444.9,95.05 34.69,-20.08 69.39,-40.17 104.06,-60.25 -1455.56,-273.09 -2845.91,-279.8 -3867.16,25.44 -1394.52,416.34 -2188.21,1212.89 -2028.64,1795.23 63.82,227.59 351.06,348.08 785.37,352.09 -349.68,-145.92 -430.14,-519.44 -159.57,-870.17z"/>
   <path class="fil0" d="M10416 4079.68c1451.41,436.42 2934.73,803.23 4463.83,816.62 -1549.92,-70.95 -3044.34,-421.7 -4463.83,-816.62z"/>
   <path class="fil0" d="M3485.07 4494.68c-883.88,408.31 -1684.53,597.08 -2242.34,593.06 123.5,52.2 280.31,76.3 467.63,60.23 1035.13,-85.67 2618.35,-982.62 4570.67,-2166.06 -9.72,-1.34 -20.81,-4.02 -30.53,-5.36 -974.08,563.61 -1891.26,1113.83 -2765.43,1518.12z"/>
   <path class="fil0" d="M7650.57 3225.57c-423.22,-123.17 -847.81,-223.58 -1268.26,-303.89 -19.41,12.05 -40.24,24.09 -59.65,36.14 -13.88,8.03 -26.37,16.06 -40.24,24.09 1280.73,238.3 2666.91,690.78 4133.58,1097.76 -933.84,-281.14 -1855.19,-590.39 -2765.43,-854.11z"/>
   <path class="fil1" d="M19704.45 1939.04c-1647.06,-819.29 -3307.99,-1555.59 -5024.43,-1779.17 1545.75,226.25 3202.53,1058.94 5024.43,1953.22l0 -174.05z"/>
   <path class="fil2" d="M1083.17 4319.3c584.18,-744.33 1993.95,-1411.01 3677.08,-1488.67 1919.02,-87.02 4100.28,630.55 6414.77,1275.81 1093.41,325.31 2196.53,621.17 3323.24,747.01 -3115.11,-244.98 -5966.57,-1735 -8630.73,-2014.78 -2250.64,-235.63 -4226.55,524.78 -4841.24,1433.78 36.07,9.36 56.88,28.11 56.88,46.84z"/>
   <path class="fil3" d="M1897.68 3866.82c-1024.04,673.37 -1079.54,1108.47 -872.79,998.68 273.35,-148.59 1015.72,-1045.54 3152.58,-1645.29 779.82,-223.56 1649.84,-294.51 2582.28,-262.39 -1948.16,-155.3 -3688.18,188.77 -4862.07,909z"/>
   <path class="fil3" d="M19704.45 3643.24c-2807.07,866.17 -5737.63,583.69 -8430.92,-10.7 -1591.56,-350.75 -3123.45,-627.86 -4515.18,-676.06 449.57,36.16 908.86,97.73 1375.09,188.77 2797.35,543.53 5782.02,1697.51 8866.61,1298.56 917.2,-119.14 1816.35,-373.5 2703,-713.53l0 -87.03 1.4 0z"/>
   <path class="fil4" d="M7191.28 3060.9c-330.25,-74.97 -688.24,-143.23 -1073.99,-195.45 355.22,48.2 713.22,116.47 1073.99,195.45z"/>
   <path class="fil5" d="M19704.45 3874.85c-137.38,57.56 -276.14,115.12 -417.67,170.01 -2260.36,884.9 -4663.64,935.78 -6844.91,448.48 -1838.55,-412.34 -3570.25,-1061.62 -5250.59,-1432.45 452.35,101.75 850.59,214.2 1183.61,313.27 2829.26,811.26 5786.19,1930.45 8704.27,1386.92 892.2,-167.33 1763.6,-475.25 2625.3,-868.83l0 -17.41z"/>
   <path class="fil6" d="M1214.98 3919.02c381.6,-279.8 842.27,-524.78 1352.89,-710.86 330.25,-96.39 677.15,-179.39 1039.3,-242.31 -851.96,175.37 -1605.43,498.02 -2181.27,899.62 -73.54,21.42 -141.53,37.48 -210.92,53.55z"/>
   <path class="fil7" d="M11360.94 285.72c-4243.19,1223.59 -7127.97,4467.33 -9431.36,5245.15 382.98,-117.81 807.57,-295.86 1258.54,-538.17 1728.92,-927.75 3639.62,-2593.12 6070.65,-3856.88 2102.17,-1092.4 4444.4,-1306.59 6602.08,-828.67 -1520.78,-376.19 -3062.38,-433.75 -4499.92,-21.42z"/>
   <path class="fil8" d="M347.75 5548.25c270.57,227.59 851.96,206.17 1426.43,33.47 51.33,-14.72 102.69,-33.47 155.42,-50.86 -731.26,226.23 -1304.33,230.25 -1581.84,17.39z"/>
   <path class="fil9" d="M19704.45 1881.48l0 -21.42c-643.85,-330.65 -1305.72,-654.64 -1991.18,-951.83 -593.9,-257.05 -1215.53,-457.84 -1853.81,-599.75 828.4,206.16 1651.21,504.7 2447.69,876.86 471.78,220.89 936.61,455.17 1397.3,696.14z"/>
   <path class="fil10" d="M221.49 5458.57c67.99,84.34 137.36,119.14 137.36,119.14 237.28,141.91 624.42,127.19 1133.65,-18.73 -632.72,159.31 -1080.92,131.19 -1271.01,-100.41z"/>
   <path class="fil11" d="M5384.65 3599.07c301.1,-203.48 604.99,-410.98 911.64,-621.17 -1991.18,1307.93 -3689.56,2259.78 -4803.79,2581.07 958.82,-242.31 2342.23,-914.36 3892.16,-1959.9z"/>
   <path class="fil12" d="M19704.45 1893.53c-797.87,-409.66 -1612.37,-804.58 -2456.01,-1133.9 -2136.88,-832.69 -4381.97,-963.87 -6312.1,-317.28 -1698.38,566.3 -3210.85,1562.31 -4638.66,2535.56 66.6,-44.17 133.21,-87.02 199.81,-132.53 1863.51,-1235.65 3889.38,-2448.54 6095.63,-2714.95 2138.26,-258.37 4458.28,514.08 6736.67,1627.9 124.89,61.58 249.76,123.16 374.66,184.75l0 -49.55z"/>
   <path class="fil13" d="M42.49 4947.18c-15.26,135.2 11.09,236.95 27.75,281.12 194.26,480.61 1365.38,469.89 2812.62,-219.55 774.27,-369.5 1586,-892.94 2462.95,-1463.23 -627.19,385.55 -1221.07,745.67 -1791.37,1049.56 -1989.78,1058.94 -3542.48,967.9 -3511.95,352.09z"/>
   <path class="fil14" d="M19704.45 1971.18c-718.77,-310.59 -1472.23,-609.12 -2264.52,-862.14 764.54,254.34 1522.15,559.58 2264.52,895.61l0 -33.47z"/>
   <path class="fil15" d="M10218.97 866.73c-1870.45,713.55 -3456.45,1757.75 -4871.78,2678.79 942.18,-578.33 1959.26,-1211.54 3085.98,-1784.53 1948.15,-989.31 4180.77,-1581.03 6402.28,-1255.72 915.8,124.5 1783.03,338.69 2607.26,602.42 -2440.75,-811.26 -4946.72,-1107.12 -7223.73,-240.97z"/>
   <path class="fil16" d="M2948.07 2801.18c-1398.68,286.5 -2489.31,1026.81 -2698.83,1697.51 -176.23,570.3 731.26,935.78 1949.54,562.26 -1423.65,495.33 -2369.98,84.34 -2063.32,-444.45 177.6,-349.41 581.39,-732.28 1103.12,-1041.53 432.92,-349.41 1026.79,-627.87 1709.49,-773.8z"/>
   <path class="fil17" d="M1879.64 3291.17c525.89,-222.23 1025.42,-334.69 1354.27,-390.91 2250.66,-469.89 4999.45,763.08 8035.45,1535.51 -1530.49,-472.56 -2969.41,-1064.28 -4350.05,-1409.67 -1905.15,-473.92 -3713.16,-373.52 -5039.67,265.06z"/>
   <path class="fil18" d="M19704.45 3873.51c-1284.91,627.87 -2607.26,1064.3 -3992.07,1124.53 -1530.49,62.92 -3017.97,-198.12 -4443.02,-560.92 657.72,203.48 1333.46,385.55 2028.64,515.4 2199.31,398.95 4393.06,-111.11 6405.05,-1032.15l0 -46.86 1.4 0z"/>
   <path class="fil19" d="M2537.34 3269.74c99.91,-21.42 15.26,18.75 -240.05,147.27 1093.41,-468.56 2476.82,-603.76 4005.94,-468.56 -1419.49,-153.95 -2712.72,-74.97 -3765.89,321.3z"/>
   <path class="fil20" d="M19704.45 3814.6c-482.89,195.45 -974.08,365.48 -1475.01,499.34 -3040.18,815.3 -6167.77,-77.64 -9048.38,-842.04 -990.74,-262.39 -1960.65,-441.78 -2877.83,-522.11 969.91,105.75 1996.72,319.95 3048.5,621.17 2811.24,803.23 5873.62,1669.39 8834.71,839.37 516.19,-144.58 1021.26,-329.33 1519.4,-542.19l0 -53.55 -1.38 0z"/>
   <path class="fil21" d="M12304.5 4554.93c1075.37,274.44 2537.89,568.95 4280.68,333.34 799.25,-111.13 1662.31,-365.48 2578.11,-744.34 -2236.77,840.73 -4635.89,951.84 -6858.79,411z"/>
   <path class="fil22" d="M19704.45 3905.63c-181.79,83.02 -363.54,163.33 -541.17,236.97 181.77,-68.28 362.17,-140.58 541.17,-219.56l0 -17.41z"/>
   <path class="fil23" d="M9980.32 1418.28c-1721.98,534.16 -3267.75,1329.36 -4579,2014.79 1395.9,-725.59 2940.26,-1490 4579,-2014.79z"/>
   <path class="fil24" d="M19704.45 4024.79c-950.5,451.16 -1935.67,801.91 -2963.88,982.62 1039.3,-179.39 2023.1,-515.4 2963.88,-947.81l0 -34.81z"/>
   <path class="fil25" d="M19704.45 2098.35c-1240.5,-432.41 -2510.14,-847.4 -3808.9,-1128.54 -2043.91,-439.11 -4042.01,-151.28 -5915.24,449.81 1862.12,-578.33 3928.23,-851.44 6128.91,-348.06 1208.58,277.11 2400.51,706.84 3595.23,1144.61l0 -117.81z"/>
   <path class="fil3" d="M381.05 4189.44c-141.53,5.36 -732.64,610.47 -80.48,843.41 74.93,42.84 162.34,74.97 260.88,95.05 -15.26,-21.42 -29.15,-44.17 -38.86,-69.61 -371.87,-427.06 47.18,-872.86 -141.53,-868.84z"/>
   <path class="fil26" d="M561.45 5127.9c369.09,518.09 2295.05,8.03 4648.38,-1464.56 376.03,-235.63 758.99,-481.95 1148.91,-730.95 -2646.11,1483.31 -4799.62,2404.35 -5797.29,2195.51z"/>
   <path class="fil26" d="M19704.45 1976.53c-868.64,-413.65 -1753.9,-812.61 -2671.1,-1135.23 -2164.61,-759.06 -4405.55,-816.62 -6332.89,-166 -1588.79,535.48 -3008.27,1408.34 -4341.73,2258.43 5.55,-2.69 9.72,-5.36 15.26,-8.03 1820.5,-1020.12 3783.92,-2042.9 5915.24,-2317.34 2074.43,-267.75 4320.92,285.14 6546.58,1164.68 291.4,115.14 581.41,231.61 868.62,348.08l0.02 -144.59z"/>
  </g>
 </g>
</svg>
